<?xml version="1.0" encoding="iso-8859-1"?>
<!-- Generator: Adobe Illustrator 19.0.0, SVG Export Plug-In . SVG Version: 6.00 Build 0)  -->
<svg version="1.1" id="Capa_1" xmlns="http://www.w3.org/2000/svg" xmlns:xlink="http://www.w3.org/1999/xlink" x="0px" y="0px"
	 viewBox="0 0 512 512" style="enable-background:new 0 0 512 512;" xml:space="preserve">
<path style="fill:#E1E4FB;" d="M241,120v136c0,8.399-6.599,15-15,15H15c-8.401,0-15-6.601-15-15V15C0,6.599,6.599,0,15,0h106
	L241,120z"/>
<path style="fill:#C5C9F7;" d="M241,120v136c0,8.399-6.599,15-15,15H106V0h15L241,120z"/>
<path style="fill:#1689FC;" d="M480.5,128.399C478.1,123.3,472.7,120,467,120h-15.901C446,73.5,417.201,34.2,377,14.399
	C359.001,5.099,338.599,0,317,0h-31c-8.401,0-15,6.599-15,15c0,8.399,6.599,15,15,15c46.199,0,72.1,30.3,75.7,90H347
	c-5.7,0-11.1,3.3-13.5,8.399c-2.401,5.4-1.8,11.4,1.8,15.901l41.7,52.2l18.3,23.8c2.701,3.6,7.2,5.7,11.7,5.7s9-2.1,11.7-5.7l60-76
	C482.3,139.799,482.901,133.799,480.5,128.399z"/>
<path style="fill:#17ACE8;" d="M226,482c-46.199,0-71.1-31.3-74.7-91H166c5.7,0,11.1-3.3,13.5-8.401c2.401-5.4,1.8-11.4-1.8-15.899
	l-60-75c-2.701-3.6-7.2-5.4-11.7-5.4s-9,1.8-11.7,5.4l-61,75c-3.6,4.499-4.2,10.499-1.8,15.899C33.9,387.7,39.3,391,45,391h16.901
	C65.799,424.9,82,455.9,106,477.499C130,498.8,161.201,512,196,512h30c8.401,0,15-6.601,15-15C241,488.599,234.401,482,226,482z"/>
<path style="fill:#8A93E6;" d="M236.587,94.376L146.624,4.413C143.964,1.745,138.519,0,136,0h-15v105c0,8.291,6.709,15,15,15h105
	v-15C241,102.479,239.257,97.038,236.587,94.376z"/>
<path style="fill:#E1E4FB;" d="M512,361v136c0,8.399-6.599,15-15,15H286c-8.401,0-15-6.601-15-15V256c0-8.401,6.599-15,15-15h106
	L512,361z"/>
<path style="fill:#C5C9F7;" d="M512,361v136c0,8.399-6.599,15-15,15H377V241h15L512,361z"/>
<path style="fill:#8A93E6;" d="M507.587,335.376l-89.963-89.963C414.964,242.745,409.519,241,407,241h-15v105
	c0,8.291,6.709,15,15,15h105v-15C512,343.479,510.257,338.038,507.587,335.376z"/>
<g>
</g>
<g>
</g>
<g>
</g>
<g>
</g>
<g>
</g>
<g>
</g>
<g>
</g>
<g>
</g>
<g>
</g>
<g>
</g>
<g>
</g>
<g>
</g>
<g>
</g>
<g>
</g>
<g>
</g>
</svg>
